<svg width="213" height="59" viewBox="0 0 213 59" fill="none" xmlns="http://www.w3.org/2000/svg">
<path fill-rule="evenodd" clip-rule="evenodd" d="M152.682 0H141.598C134.39 0 128.813 6.12802 128.813 13.8949V55.5797C128.813 57.4324 130.173 58.9287 131.941 58.9287C133.642 58.9287 135.07 57.4324 135.07 55.5797V34.7373V13.8949C135.07 9.90459 137.994 6.76932 141.666 6.76932H152.75C154.518 6.76932 155.878 5.27295 155.878 3.42029C155.81 1.49638 154.382 0 152.682 0Z" fill="#2FA5E7"/>
<path fill-rule="evenodd" clip-rule="evenodd" d="M97.736 52.2307H75.2275C71.5554 52.2307 68.6313 49.0954 68.6313 45.1051V37.5519C68.6313 33.6328 71.5554 30.4263 75.2275 30.4263H107.12V42.0411C107.12 47.6703 102.904 52.2307 97.736 52.2307ZM100.524 0H76.9275C69.7193 0 64.0752 6.12802 64.0752 13.8949C64.0752 15.7476 65.5032 17.3152 67.2032 17.3152C68.9033 17.3152 70.3313 15.8188 70.3313 13.8949C70.3313 9.90459 73.1874 6.76932 76.9275 6.76932H100.524C104.196 6.76932 107.12 9.90459 107.12 13.8949V23.657H75.2275C68.1553 23.657 62.3751 29.9275 62.3751 37.5519V45.1051C62.3751 52.872 68.0193 59 75.1595 59H97.668C101.204 59 104.4 57.7174 107.052 55.5797C107.052 57.4324 108.412 58.9287 110.18 58.9287C111.88 58.9287 113.308 57.4324 113.308 55.5797V13.8949C113.308 6.12802 107.664 0 100.524 0Z" fill="#2FA5E7"/>
<path fill-rule="evenodd" clip-rule="evenodd" d="M197.36 52.2307H174.851C171.179 52.2307 168.255 49.0954 168.255 45.1051V37.5519C168.255 33.6328 171.179 30.4263 174.851 30.4263H206.744V42.0411C206.744 47.6703 202.528 52.2307 197.36 52.2307ZM200.148 0H176.551C169.343 0 163.699 6.12802 163.699 13.8949C163.699 15.7476 165.127 17.3152 166.827 17.3152C168.527 17.3152 169.955 15.8188 169.955 13.8949C169.955 9.90459 172.879 6.76932 176.551 6.76932H200.148C203.82 6.76932 206.744 9.90459 206.744 13.8949V23.657H174.851C167.779 23.657 161.999 29.8563 161.999 37.5519V45.1051C161.999 52.872 167.643 59 174.851 59H197.36C200.896 59 204.092 57.7174 206.744 55.5797C206.744 57.4324 208.172 58.9287 209.872 58.9287C211.572 58.9287 213 57.4324 213 55.5797V13.8949C212.932 6.12802 207.356 0 200.148 0Z" fill="#2FA5E7"/>
<path fill-rule="evenodd" clip-rule="evenodd" d="M53.3962 1.1401C52.7842 0.427536 51.9001 0 51.0161 0C50.1321 0 49.2481 0.35628 48.6361 1.06884L27.2155 24.2983L5.79495 1.1401C5.18293 0.427536 4.29891 0 3.41489 0C2.53086 0 1.64684 0.427536 1.03482 1.1401C-0.257209 2.56522 -0.257209 4.91667 1.03482 6.34179L48.6361 57.9312C49.2481 58.6437 50.1321 59 51.0161 59C51.9681 59 52.7842 58.6437 53.3962 57.9312C54.6882 56.506 54.6882 54.1546 53.3962 52.7295L32.0436 29.5L53.3962 6.34179C54.0762 5.62923 54.4162 4.7029 54.4162 3.70531C54.4162 2.70773 54.0082 1.7814 53.3962 1.1401Z" fill="#2FA5E7"/>
<path fill-rule="evenodd" clip-rule="evenodd" d="M0.969025 57.9311C1.58104 58.5724 2.39706 58.9287 3.28108 58.9287C4.16511 58.9287 4.98113 58.5724 5.59314 57.9311L16.9494 45.6038L12.3933 40.6159L0.969025 53.0145C-0.323008 54.3683 -0.323008 56.5773 0.969025 57.9311Z" fill="#2FA5E7"/>
</svg>